<?xml version="1.0" encoding="iso-8859-1"?>
<!-- Generator: Adobe Illustrator 18.1.1, SVG Export Plug-In . SVG Version: 6.00 Build 0)  -->
<svg version="1.1" id="Capa_1" xmlns="http://www.w3.org/2000/svg" xmlns:xlink="http://www.w3.org/1999/xlink" x="0px" y="0px"
	 viewBox="0 0 350.113 350.113" style="enable-background:new 0 0 350.113 350.113;" xml:space="preserve">
<g>
	<g>
		<path style="fill:#010002;" d="M323.815,0.003H26.298C11.797,0.003,0,11.795,0,26.295v297.522
			c0,14.501,11.797,26.292,26.298,26.292h297.517c14.501,0,26.298-11.792,26.298-26.292V26.295
			C350.113,11.795,338.315,0.003,323.815,0.003z M26.298,21.759h297.517c2.502,0,4.542,2.04,4.542,4.536v228.642l-73.232-72.432
			c-3.818-3.78-9.834-4.215-14.147-0.99l-50.29,37.426l-61.761-100.47c-1.925-3.122-5.298-5.069-8.964-5.173
			c-3.617-0.158-7.147,1.659-9.241,4.672L21.762,246.224V26.295C21.756,23.799,23.796,21.759,26.298,21.759z M323.815,328.354
			H26.298c-2.502,0-4.542-2.04-4.542-4.536v-39.411l97.354-140.355l59.264,96.418c1.599,2.594,4.215,4.411,7.212,4.982
			c3.013,0.582,6.103-0.125,8.55-1.953l52.329-38.944l81.885,80.993v38.275C328.356,326.314,326.317,328.354,323.815,328.354z"/>
		<path style="fill:#010002;" d="M228.441,156.245c28.544,0,51.769-23.225,51.769-51.769c0-28.555-23.225-51.78-51.769-51.78
			s-51.769,23.225-51.769,51.78C176.677,133.026,199.896,156.245,228.441,156.245z M228.441,74.458
			c16.546,0,30.013,13.473,30.013,30.024s-13.467,30.013-30.013,30.013s-30.013-13.462-30.013-30.013S211.895,74.458,228.441,74.458
			z"/>
	</g>
</g>
<g>
</g>
<g>
</g>
<g>
</g>
<g>
</g>
<g>
</g>
<g>
</g>
<g>
</g>
<g>
</g>
<g>
</g>
<g>
</g>
<g>
</g>
<g>
</g>
<g>
</g>
<g>
</g>
<g>
</g>
</svg>
